<?xml version="1.0" standalone="no"?><!DOCTYPE svg PUBLIC "-//W3C//DTD SVG 1.1//EN" "http://www.w3.org/Graphics/SVG/1.1/DTD/svg11.dtd"><svg class="icon" width="200px" height="200.00px" viewBox="0 0 1024 1024" version="1.1" xmlns="http://www.w3.org/2000/svg"><path d="M462.848 972.288h-1.024c-121.856-3.584-236.544-54.272-321.536-142.336-86.016-88.064-132.608-204.288-132.608-327.168 0-259.072 210.944-470.016 470.016-470.016 113.152 0 222.72 40.96 308.224 115.2 84.48 73.728 140.288 175.104 156.672 285.184 2.56 19.456-10.24 37.376-30.208 40.448-18.944 2.56-37.376-10.24-40.448-30.208-28.672-193.536-198.656-339.456-394.752-339.456-219.648 0-398.336 179.2-398.336 398.848 0 216.576 169.472 391.168 385.536 398.336 19.456 0.512 34.816 16.896 34.304 36.352-1.024 19.456-16.896 34.816-35.84 34.816z" fill="#289EFC" /><path d="M447.488 593.408c-5.12 0-9.216-1.024-13.824-3.584-8.704-5.12-13.824-13.824-13.824-23.552V282.624c0-15.36 11.776-27.136 27.136-27.136s27.136 11.776 27.136 27.136v235.52l114.688-66.56c13.312-7.68 29.184-3.072 36.864 9.728 7.68 13.312 3.072 29.184-9.728 36.864L460.8 588.8c-3.584 3.072-8.704 4.608-13.312 4.608z" fill="#289EFC" /><path d="M1016.32 622.592c0-30.208-24.576-54.272-54.272-54.272h-337.92c-30.208 0-54.272 24.576-54.272 54.272v60.416c0 9.728 2.56 18.944 7.68 27.136-5.12 8.192-7.68 17.408-7.68 27.136v207.36c0 30.208 24.576 54.272 54.272 54.272h337.92c30.208 0 54.272-24.576 54.272-54.272V737.28c0-9.728-2.56-18.944-7.68-27.136 5.12-8.192 7.68-17.408 7.68-27.136v-60.416z m-54.272 322.56h-337.92v-207.36h93.696v124.416c0 10.24 6.144 19.456 15.36 23.552 3.072 1.536 6.656 2.048 10.24 2.048 6.144 0 12.8-2.56 17.408-6.656l32.256-30.208 32.256 30.208c4.608 4.608 11.264 6.656 17.408 6.656 3.584 0 6.656-0.512 10.24-2.048 9.216-4.096 15.36-13.312 15.36-23.552v-124.416h93.696v207.36z m-193.536-207.36h48.64v65.536l-6.656-6.144c-0.512-0.512-1.024-0.512-1.536-1.024-0.512-0.512-1.536-1.024-2.048-1.536-0.512-0.512-1.536-1.024-2.048-1.024-1.024-0.512-1.536-1.024-2.56-1.024-0.512-0.512-1.536-0.512-2.048-0.512-1.024 0-1.536-0.512-2.56-0.512s-1.536 0-2.56-0.512h-5.12c-1.024 0-1.536 0-2.56 0.512-1.024 0-1.536 0.512-2.56 0.512s-1.536 0.512-2.56 1.024-1.536 0.512-2.56 1.024c-0.512 0.512-1.536 0.512-2.048 1.024-0.512 0.512-1.536 1.024-2.048 1.536-0.512 0.512-1.024 0.512-1.536 1.024l-6.656 6.144v-66.048z m193.536-54.272h-337.92v-60.416h337.92v60.416z" fill="#32C9F0" /></svg>