<?xml version="1.0" standalone="no"?><!DOCTYPE svg PUBLIC "-//W3C//DTD SVG 1.1//EN" "http://www.w3.org/Graphics/SVG/1.1/DTD/svg11.dtd"><svg class="icon" width="200px" height="200.00px" viewBox="0 0 1024 1024" version="1.1" xmlns="http://www.w3.org/2000/svg"><path d="M972.288 305.152c0-0.512 0-1.536-0.512-2.048V302.08c-0.512-2.56-1.024-5.632-2.56-8.192 0-1.024-0.512-1.536-1.024-2.048-0.512-1.024-1.024-1.536-1.536-2.56-0.512-1.536-2.048-2.56-3.072-4.096l-3.072-3.072c-0.512-0.512-1.024-1.024-2.048-1.536-0.512-0.512-1.024-0.512-1.536-1.024l-0.512-0.512h-0.512s-0.512-0.512-1.024-0.512-1.024-0.512-1.536-1.024c-0.512-0.512-1.536-1.024-2.048-1.024l-220.672-92.16L527.36 98.816c-7.68-3.584-16.896-3.584-25.6-0.512L35.84 266.752h-1.024c-2.56 1.024-5.632 2.048-8.192 4.608l-1.024 1.024c-0.512 0.512-1.024 0.512-1.024 1.024-0.512 0.512-1.024 1.024-2.048 1.536l-0.512 0.512v1.024l-0.512 0.512c-0.512 0.512-0.512 1.024-1.024 1.024l-1.024 1.024c-1.536 1.536-2.048 3.072-2.56 4.608-0.512 0.512-0.512 1.536-1.024 2.048 0 0.512 0 0.512-0.512 1.024l-1.024 2.56c-0.512 1.024-1.024 2.56-1.024 4.096v1.024c0 1.024-0.512 2.048-0.512 3.072v363.52c0 13.312 7.168 25.088 18.944 30.72l433.152 220.672v1.024h2.048c0.512 0 0.512 0.512 1.024 0.512s1.024 0.512 1.024 0.512c0.512 0 0.512 0 1.024 0.512v0.512h0.512c0.512 0 1.024 0.512 2.048 0.512h0.512c0.512 0 1.024 0.512 2.048 0l0.512 0.512H481.28c1.024 0 3.072 0 4.608-0.512h0.512c1.024 0 1.536 0 2.048-0.512h1.024c1.024 0 2.048-0.512 2.56-1.024h1.024c0.512 0 1.024 0 1.536-0.512 1.024 0 1.536-0.512 2.048-1.024l156.672-70.144c8.192-3.584 14.848-10.752 18.432-19.456 3.072-8.704 3.072-17.92-1.024-26.624-8.192-17.408-28.672-25.088-45.568-17.408l-108.544 48.128v-302.08l387.072-166.4v113.664c0 18.944 15.36 34.816 34.816 34.816s34.816-15.36 34.816-34.816V305.152h-1.024z m-123.392 3.072L481.28 466.432 344.576 401.408l371.712-148.48 132.608 55.296z m-711.68-4.096L512 167.936l112.128 47.104-365.568 145.92-121.344-56.832z m308.736 221.696v299.52L81.92 640V354.304l364.032 171.52z" fill="#289EFC" /><path d="M878.08 771.584c-5.12 0-9.216-1.536-12.8-5.12l-39.936-33.792c-4.608-3.584-7.168-9.216-7.168-15.36v-68.608c0-11.264 8.704-19.968 19.968-19.968s19.968 8.704 19.968 19.968v58.88l32.768 27.648c8.704 7.168 9.216 19.456 2.048 28.672-3.072 5.12-9.216 7.68-14.848 7.68z" fill="#32C9F0" /><path d="M848.896 872.448c-94.72 0-172.032-77.312-172.032-172.032s77.312-172.032 172.032-172.032 172.032 77.312 172.032 172.032-77.312 172.032-172.032 172.032z m0-290.816c-65.536 0-118.784 53.248-118.784 118.784S783.36 819.2 848.896 819.2s118.784-53.248 118.784-118.784-53.76-118.784-118.784-118.784z" fill="#32C9F0" /></svg>