<?xml version="1.0" standalone="no"?><!DOCTYPE svg PUBLIC "-//W3C//DTD SVG 1.1//EN" "http://www.w3.org/Graphics/SVG/1.1/DTD/svg11.dtd"><svg class="icon" width="200px" height="200.00px" viewBox="0 0 1024 1024" version="1.1" xmlns="http://www.w3.org/2000/svg"><path d="M980.992 606.208c-9.728-2.56-19.968-1.536-28.672 3.584-8.704 5.12-15.36 12.8-17.92 22.528-51.712 185.344-222.72 314.88-415.232 314.88-238.08 0-431.616-193.536-431.616-431.616s193.536-431.616 431.616-431.616c198.144 0 370.176 133.632 418.304 325.632 2.56 9.728 8.704 17.92 17.408 23.04s18.944 6.656 28.672 4.096c9.728-2.56 17.92-8.704 23.04-17.408s6.656-18.944 4.096-28.672c-13.824-54.272-36.352-105.472-67.072-152.576-30.208-46.08-67.584-87.04-110.592-121.344-44.032-34.816-92.672-61.44-144.896-79.872-54.272-18.944-111.104-28.672-168.96-28.672-68.608 0.512-134.656 13.824-197.632 40.448-60.416 25.6-114.688 61.952-161.28 108.544-46.592 46.592-82.944 100.864-108.544 161.28C25.6 380.928 12.288 447.488 12.288 515.584S25.6 650.24 52.224 713.216c25.6 60.416 61.952 114.688 108.544 161.28 46.592 46.592 100.864 82.944 161.28 108.544 62.464 26.624 129.024 39.936 197.632 39.936 56.832 0 112.64-9.216 165.888-27.648 51.712-17.92 99.84-44.032 142.848-77.312 43.008-32.768 79.872-72.192 110.592-117.248 30.72-45.568 54.272-95.232 68.608-147.968 5.632-19.968-6.144-40.96-26.624-46.592z" fill="#289EFC" /><path d="M611.328 477.696H315.392l107.52-129.536c6.656-7.68 9.728-17.408 8.704-27.648-1.024-10.24-5.632-18.944-13.312-25.6-7.68-6.656-17.408-9.728-27.648-8.704-10.24 1.024-18.944 5.632-25.6 13.312L206.336 491.52l-0.512 0.512-0.512 0.512c0 0.512-0.512 0.512-0.512 1.024l-2.048 2.56c0 0.512-0.512 0.512-0.512 1.024-0.512 0.512-0.512 1.024-1.024 1.536l-0.512 1.024c0 0.512 0 0.512-0.512 0.512l-2.048 5.12c0 0.512-0.512 1.024-0.512 2.048V521.728c0 0.512 0 1.024 0.512 1.536l0.512 2.56c0 0.512 0.512 1.024 0.512 2.048 0 0.512 0 0.512 0.512 1.024 0 0.512 0.512 0.512 0.512 1.024v0.512l1.024 1.536c0 0.512 0.512 1.024 0.512 1.536 0 0.512 0.512 0.512 0.512 1.024l1.536 2.048c0.512 0.512 0.512 1.024 1.024 1.024l0.512 0.512 159.232 192.512c7.168 8.704 17.92 13.824 29.184 13.824 8.704 0 17.408-3.072 24.064-8.704 15.872-13.312 18.432-36.864 5.12-53.248l-107.52-129.536h295.936c20.992 0 37.888-16.896 37.888-37.888s-17.408-37.376-37.888-37.376z m-405.504 23.552zM803.84 553.472h-92.16c-20.992 0-37.888-16.896-37.888-37.888s16.896-37.888 37.888-37.888h92.16c20.992 0 37.888 16.896 37.888 37.888s-16.896 37.888-37.888 37.888z" fill="#32C9F0" /></svg>