<svg t="1588843122477" class="icon" viewBox="0 0 1024 1024" version="1.1" xmlns="http://www.w3.org/2000/svg" p-id="1010" width="200" height="200"><path d="M1000.96 520.192l-470.528-496.64c-8.704-8.704-20.48-13.312-32.768-13.312-12.288 0-23.552 5.12-31.744 14.336l-446.976 496.64c-7.68 8.704-11.776 19.968-11.264 31.744 0.512 11.776 5.632 22.528 14.336 30.208 8.192 7.168 18.432 11.264 29.184 11.264 12.288 0 24.064-5.12 32.768-14.336l415.232-461.312 438.272 462.336c8.192 8.704 18.944 13.312 30.72 13.824 11.776 0.512 23.04-4.096 31.232-11.776 17.408-17.92 17.92-45.568 1.536-62.976z" fill="#289EFC" p-id="1011"></path><path d="M187.904 537.6c-24.064 0-43.52 18.432-43.52 40.96v394.24c0 22.528 19.456 40.96 43.52 40.96s43.52-18.432 43.52-40.96v-394.24c0-22.528-19.456-40.96-43.52-40.96zM832.512 537.6c-24.064 0-43.52 18.432-43.52 40.96v394.24c0 22.528 19.456 40.96 43.52 40.96s43.52-18.432 43.52-40.96v-394.24c0.512-22.528-18.944-40.96-43.52-40.96z" fill="#289EFC" p-id="1012"></path><path d="M691.712 709.632H316.928c-20.48 0-36.864-16.384-36.864-36.864s16.384-36.864 36.864-36.864H691.2c20.48 0 36.864 16.384 36.864 36.864 0.512 20.48-16.384 36.864-36.352 36.864zM691.712 852.992H316.928c-20.48 0-36.864-16.384-36.864-36.864s16.384-36.864 36.864-36.864H691.2c20.48 0 36.864 16.384 36.864 36.864 0.512 20.48-16.384 36.864-36.352 36.864zM691.712 996.864H316.928c-20.48 0-36.864-16.384-36.864-36.864s16.384-36.864 36.864-36.864H691.2c20.48 0 36.864 16.384 36.864 36.864 0.512 20.48-16.384 36.864-36.352 36.864z" fill="#32C9F0" p-id="1013"></path></svg>