<svg t="1588843442769" class="icon" viewBox="0 0 1024 1024" version="1.1" xmlns="http://www.w3.org/2000/svg" p-id="1144" width="200" height="200"><path d="M380.416 287.232c6.144 9.728 15.872 14.848 27.136 14.848 6.656 0 12.288-1.536 16.384-5.12 14.848-9.728 19.456-29.184 10.24-43.52L381.44 169.472c-4.608-7.168-11.776-11.776-19.968-13.824-8.192-2.048-16.384-0.512-23.552 4.096-14.848 9.728-19.456 29.184-10.24 43.52l52.736 83.968zM599.552 296.96c4.608 3.584 10.24 5.12 16.896 5.12 10.752 0 21.504-5.632 27.136-14.848l52.224-83.968c9.216-14.848 5.12-34.304-10.24-43.52-14.848-9.216-33.792-4.608-43.52 10.24l-52.224 83.968c-9.216 14.848-4.608 33.792 9.728 43.008zM512 109.056c-17.92 0-31.744 13.824-31.744 31.744v118.272c0 17.92 13.824 31.744 31.744 31.744 16.896 0 31.744-14.848 31.744-32.256v-117.76c-0.512-17.92-14.336-31.744-31.744-31.744zM695.808 858.112l-52.224-83.968c-5.632-9.216-16.384-14.848-27.136-14.848-6.656 0-12.288 1.536-16.384 5.12-14.848 9.728-19.456 28.672-10.24 43.52l52.224 83.968c6.144 9.728 16.384 14.848 26.624 14.848 5.632 0 11.264-1.536 16.384-4.608 15.872-9.728 20.48-29.184 10.752-44.032zM512 771.072c-17.92 0-31.744 13.824-31.744 31.744v117.76c0 17.92 13.824 31.744 31.744 31.744s31.744-13.824 31.744-31.744v-117.76c-0.512-17.408-14.336-31.744-31.744-31.744zM423.936 763.392c-5.12-3.072-10.752-4.096-16.896-4.096-11.264 0-20.992 5.632-27.136 15.36l-51.712 83.456c-9.216 14.336-5.12 33.792 9.728 43.52 5.12 3.072 10.752 5.12 16.384 5.12 10.24 0 20.992-5.12 27.136-14.848l52.224-83.968c4.608-7.168 6.144-15.36 4.096-24.064-1.536-8.704-6.656-15.872-13.824-20.48z" fill="#32C9F0" p-id="1145"></path><path d="M399.872 662.016h-199.68c-72.192 0-131.072-58.88-131.072-131.072S128 399.36 200.192 399.36h198.144c18.432 0 33.28-14.848 33.28-33.28S417.28 332.8 398.848 332.8H200.192C91.136 332.8 2.56 421.376 2.56 530.432s88.576 197.632 197.632 197.632h199.68c18.432 0 33.28-14.848 33.28-33.28s-14.848-32.768-33.28-32.768zM823.808 332.8h-198.144c-18.432 0-33.28 14.848-33.28 33.28s14.848 33.28 33.28 33.28h198.144c72.192 0 131.072 58.88 131.072 131.072s-58.88 131.072-131.072 131.072h-199.68c-18.432 0-33.28 14.848-33.28 33.28s14.848 33.28 33.28 33.28h199.68c109.056 0 197.632-88.576 197.632-197.632S932.864 332.8 823.808 332.8z" fill="#289EFC" p-id="1146"></path></svg>
