<?xml version="1.0" standalone="no"?><!DOCTYPE svg PUBLIC "-//W3C//DTD SVG 1.1//EN" "http://www.w3.org/Graphics/SVG/1.1/DTD/svg11.dtd"><svg class="icon" width="200px" height="200.00px" viewBox="0 0 1024 1024" version="1.1" xmlns="http://www.w3.org/2000/svg"><path d="M1012.736 411.648c-11.264-58.368-53.76-97.792-105.472-97.792h-4.608c-25.6-0.512-46.08-20.992-46.08-46.592 0-3.072 0.512-6.144 2.048-10.24l2.56-7.168c23.04-52.736 6.656-112.64-40.448-146.432l-0.512-0.512c-2.048-2.048-4.096-3.072-5.632-3.584L700.416 35.328l-0.512-0.512-7.168-3.584c-15.36-6.144-32.256-9.728-48.128-9.728-35.328 0-69.12 14.848-92.672 40.96-11.264 11.776-23.04 21.504-36.352 29.184-3.072 2.048-7.68 2.048-10.752 0-13.824-7.68-25.6-17.408-35.328-28.16-23.552-25.6-56.832-40.448-92.16-40.448-16.896 0-33.792 3.584-49.152 10.24L214.528 97.28c-2.048 0.512-3.584 1.536-5.12 3.072l-4.096 2.048c-46.592 33.792-63.488 94.208-40.96 147.456 2.048 5.632 3.072 11.264 4.096 17.92-0.512 25.6-20.48 45.568-45.568 46.08h-4.608C66.56 313.856 24.064 352.768 12.8 411.648 6.656 444.928 3.072 478.72 2.56 512c0.512 32.768 4.096 66.048 10.24 99.84 11.264 58.368 53.76 97.792 105.472 97.792h3.584c25.6 0.512 46.08 20.992 46.08 46.592 0 3.072-0.512 6.144-2.048 10.24l-0.512 1.536c-0.512 1.536-1.024 3.072-1.536 5.12-23.552 52.736-6.656 113.152 39.936 146.944l0.512 0.512c2.56 2.56 4.608 3.584 6.144 4.096l115.712 64c0.512 0.512 1.024 0.512 1.536 1.024l7.168 3.072c15.36 6.144 32.256 9.728 48.128 9.728 34.304 0 68.096-14.336 91.648-38.912 10.24-10.752 21.504-19.456 33.792-26.112l0.512-0.512c3.072-2.048 7.168-2.56 13.824 0.512 12.8 7.168 24.064 15.36 33.28 25.6 23.552 24.064 56.832 37.888 91.136 37.888 16.896 0 33.792-3.584 49.152-10.24l115.712-64.512c1.536-0.512 3.584-1.536 5.12-2.56l3.584-2.048c47.616-32.768 65.024-95.232 42.496-147.968-0.512-1.024-0.512-2.048-1.024-2.56l-1.536-4.608c-1.024-2.56-1.536-6.144-1.536-9.728 0.512-25.6 20.48-45.568 45.568-46.08h5.12c51.712 0 93.696-39.424 104.448-97.792 6.656-34.816 9.728-67.584 10.24-100.864-2.048-33.28-5.632-67.072-11.776-100.352zM916.48 620.544h-5.12c-74.752 0.512-135.168 61.952-135.168 136.192 0 12.8 2.048 24.576 5.632 35.328 1.536 6.144 3.584 11.776 5.632 16.896 5.632 13.312 2.048 29.696-9.728 39.936L665.6 911.872l-1.024 0.512c-14.336 5.632-31.744 2.048-42.496-8.704-20.48-20.992-65.536-56.832-105.472-56.832-40.448 0-85.504 36.352-105.472 57.856-11.264 11.264-28.16 14.848-42.496 9.216l-2.048-1.024-117.248-65.024a33.5872 33.5872 0 0 1-8.192-38.912c2.048-5.632 4.096-11.264 5.632-16.384 3.584-12.288 5.632-24.576 5.632-35.84 0-74.752-60.416-135.68-135.168-136.192H112.64c-10.752 0-17.408-15.872-19.456-26.624-5.632-28.672-8.192-56.32-8.704-84.992 0.512-28.672 3.584-56.832 8.704-85.504 1.536-9.216 7.68-26.624 19.456-26.624h4.608c74.752-0.512 135.168-61.952 135.168-136.192 0-12.8-2.048-24.576-5.632-35.328-1.536-5.632-3.584-11.264-5.632-16.896-5.632-13.312-2.048-29.696 9.728-39.936l110.08-61.44 1.024-0.512c15.36-5.632 31.744-2.56 42.496 8.704 13.824 14.848 29.696 28.16 46.592 38.912 22.016 13.824 42.496 21.504 60.416 21.504 41.984 0 89.088-40.448 108.032-61.44 11.264-11.776 27.648-15.36 42.496-9.728l113.664 63.488 1.024 0.512c11.776 9.216 15.36 25.6 9.216 39.936l-0.512 1.536c-0.512 2.56-1.536 4.608-2.56 7.168-1.024 2.56-2.048 5.632-2.56 8.192-3.584 12.288-5.632 24.576-5.632 35.84 0 74.752 60.416 136.192 135.168 136.192h4.608c12.288 0 18.432 17.408 19.968 26.624 5.632 28.672 8.704 57.856 10.752 85.504-0.512 28.672-3.584 56.32-8.704 84.48-4.608 19.968-13.312 26.624-19.968 26.624z" fill="#289EFC" /><path d="M663.552 349.696c-26.624 0-49.152 15.872-58.88 38.912H319.488c-13.824 0-25.088 11.264-25.088 25.088s11.264 25.088 25.088 25.088h285.184c9.728 23.04 32.768 38.912 58.88 38.912 35.328 0 64-28.672 64-64 0-34.816-28.672-64-64-64z m41.472 235.008H420.352c-9.728-23.04-32.768-38.912-58.88-38.912-35.328 0-64 28.672-64 64s28.672 64 64 64c26.624 0 49.152-15.872 58.88-38.912h285.184c13.824 0 25.088-11.264 25.088-25.088s-11.264-25.088-25.6-25.088z" fill="#32C9F0" /></svg>