<?xml version="1.0" standalone="no"?><!DOCTYPE svg PUBLIC "-//W3C//DTD SVG 1.1//EN" "http://www.w3.org/Graphics/SVG/1.1/DTD/svg11.dtd"><svg class="icon" width="200px" height="200.00px" viewBox="0 0 1024 1024" version="1.1" xmlns="http://www.w3.org/2000/svg"><path d="M952.32 641.536c-23.552 0-42.496 18.944-43.008 42.496V911.36c1.024 22.528 18.944 40.448 40.96 40.96h1.536c23.04 0 41.984-17.92 43.008-41.472v-226.816c0.512-23.04-18.944-42.496-42.496-42.496zM791.04 537.088l-2.56-0.512c-23.552 0-42.496 19.456-42.496 43.008v378.88c1.024 22.528 18.944 40.448 40.96 40.96h1.536c23.04 0 41.984-17.92 43.008-41.472v-378.368c0.512-22.528-17.92-41.472-40.448-42.496zM626.688 585.216h-1.536c-23.552 0.512-42.496 19.456-42.496 43.008v303.104c1.024 22.528 18.944 40.448 40.96 40.96h1.536c23.04 0 41.984-17.92 43.008-41.472v-302.592c0.512-23.552-18.432-42.496-41.472-43.008z" fill="#32C9F0" /><path d="M940.544 432.128c-0.512-1.536-0.512-3.072-1.024-5.12l-17.408-154.624c-2.56-21.504-20.48-37.888-42.496-37.888h-182.272v-32.768c0-106.496-86.528-193.024-193.024-193.024-106.496 0-193.024 86.528-193.024 193.024v32.768H128.512c-22.016 0-39.936 16.384-42.496 37.888L10.752 952.32c-1.536 11.264 2.048 22.528 9.216 31.744 7.168 8.704 17.408 14.336 29.184 15.872h380.416c23.552 0 43.008-19.456 43.008-43.008s-19.456-43.008-43.008-43.008H100.864l65.536-593.92h144.384v108.032c0 23.552 18.944 42.496 42.496 42.496s42.496-18.944 42.496-42.496v-107.52h215.552v108.032c-0.512 11.264 3.584 22.528 11.264 30.72 7.68 8.192 18.432 13.312 29.696 13.824 23.552 1.024 43.52-17.408 44.544-40.96V320.512h144.896l13.824 125.44h1.536c4.608 18.944 21.504 32.768 40.96 32.768 23.552 0 43.008-19.456 43.008-43.008v-2.56l-0.512-1.024z m-328.704-236.032v38.4h-215.04v-32.768c-0.512-28.672 9.728-56.32 29.696-76.8 19.968-20.992 46.592-32.768 75.264-33.28 28.672-0.512 56.32 9.728 76.8 29.696 20.992 19.456 32.768 46.08 33.28 74.752z" fill="#289EFC" /></svg>