<?xml version="1.0" standalone="no"?><!DOCTYPE svg PUBLIC "-//W3C//DTD SVG 1.1//EN" "http://www.w3.org/Graphics/SVG/1.1/DTD/svg11.dtd"><svg class="icon" width="200px" height="200.00px" viewBox="0 0 1024 1024" version="1.1" xmlns="http://www.w3.org/2000/svg"><path d="M972.288 305.152c0-0.512 0-1.536-0.512-2.048V302.08c-0.512-2.56-1.024-5.632-2.56-8.192 0-1.024-0.512-1.536-1.024-2.048-0.512-1.024-1.024-1.536-1.536-2.56-0.512-1.536-2.048-2.56-3.072-4.096l-3.072-3.072c-0.512-0.512-1.024-1.024-2.048-1.536-0.512-0.512-1.024-0.512-1.536-1.024l-0.512-0.512h-0.512s-0.512-0.512-1.024-0.512-1.024-0.512-1.536-1.024c-0.512-0.512-1.536-1.024-2.048-1.024l-220.672-92.16L527.36 98.816c-7.68-3.584-16.896-3.584-25.6-0.512L35.84 266.752h-1.024c-2.56 1.024-5.632 2.048-8.192 4.608l-1.024 1.024c-0.512 0.512-1.024 0.512-1.024 1.024-0.512 0.512-1.024 1.024-2.048 1.536l-0.512 0.512v1.024l-0.512 0.512c-0.512 0.512-0.512 1.024-1.024 1.024l-1.024 1.024c-1.536 1.536-2.048 3.072-2.56 4.608-0.512 0.512-0.512 1.536-1.024 2.048 0 0.512 0 0.512-0.512 1.024l-1.024 2.56c-0.512 1.024-1.024 2.56-1.024 4.096v1.024c0 1.024-0.512 2.048-0.512 3.072v363.52c0 13.312 7.168 25.088 18.944 30.72l433.152 220.672v1.024h2.048c0.512 0 0.512 0.512 1.024 0.512s1.024 0.512 1.024 0.512c0.512 0 0.512 0 1.024 0.512v0.512h0.512c0.512 0 1.024 0.512 2.048 0.512h0.512c0.512 0 1.024 0.512 2.048 0l0.512 0.512H481.28c1.024 0 3.072 0 4.608-0.512h0.512c1.024 0 1.536 0 2.048-0.512h1.024c1.024 0 2.048-0.512 2.56-1.024h1.024c0.512 0 1.024 0 1.536-0.512 1.024 0 1.536-0.512 2.048-1.024l156.672-70.144c8.192-3.584 14.848-10.752 18.432-19.456 3.072-8.704 3.072-17.92-1.024-26.624-8.192-17.408-28.672-25.088-45.568-17.408l-108.544 48.128v-302.08l387.072-166.4v113.664c0 18.944 15.36 34.816 34.816 34.816s34.816-15.36 34.816-34.816V305.152h-1.024z m-123.392 3.072L481.28 466.432 344.576 401.408l371.712-148.48 132.608 55.296z m-711.68-4.096L512 167.936l112.128 47.104-365.568 145.92-121.344-56.832z m308.736 221.696v299.52L81.92 640V354.304l364.032 171.52z" fill="#289EFC" /><path d="M997.888 575.488c-15.36-12.8-37.376-11.264-50.688 3.584L798.72 752.64l-76.8-87.552c-6.144-7.168-15.36-11.264-24.576-12.288-9.728-0.512-18.944 2.56-26.112 9.216-14.336 13.312-15.872 35.84-3.072 50.688l104.448 119.296c6.144 7.68 16.384 12.288 27.136 12.288 11.264-0.512 20.48-5.12 26.624-12.8l175.616-204.8c12.288-15.872 10.752-37.888-4.096-51.2z" fill="#32C9F0" /></svg>