<?xml version="1.0" standalone="no"?><!DOCTYPE svg PUBLIC "-//W3C//DTD SVG 1.1//EN" "http://www.w3.org/Graphics/SVG/1.1/DTD/svg11.dtd"><svg class="icon" width="200px" height="200.00px" viewBox="0 0 1024 1024" version="1.1" xmlns="http://www.w3.org/2000/svg"><path d="M597.504 883.2c-1.024-2.048-2.56-3.584-4.608-4.096-2.048-0.512-4.608-0.512-6.144 0.512l-87.04 50.688-358.912-207.36 51.2-30.72c0.512 0 1.024-0.512 1.536-1.024l0.512-0.512 2.048-1.024c15.36-11.264 19.456-32.256 9.728-47.616-4.608-8.192-12.8-14.336-22.016-16.896-9.728-2.56-19.456-1.024-28.16 4.096L49.152 692.224c-8.192 4.608-14.336 12.8-16.896 22.016-2.56 9.216-1.024 19.456 3.584 27.136 1.536 3.072 4.096 6.144 7.168 8.704 0.512 1.024 1.536 2.048 2.56 2.56L481.28 1005.056c5.632 3.072 11.776 5.12 18.432 5.12 6.144 0 12.8-1.536 18.944-5.12l105.472-60.928c2.048-1.024 3.072-3.072 3.584-5.12 0.512-2.048 0-4.608-1.536-6.144-11.264-14.848-20.992-31.232-28.672-49.664zM635.904 638.976l-137.216 79.36-359.424-206.848 52.224-30.72 0.512-0.512c0.512 0 0.512-0.512 1.024-0.512h0.512c0.512 0 0.512-0.512 1.024-0.512 15.36-10.752 19.968-32.256 10.24-47.616-4.608-8.192-12.8-14.336-22.016-16.896-9.728-2.56-19.456-1.024-28.16 4.096l-25.6 15.36-81.408 46.08c-17.408 10.24-23.552 32.256-13.312 49.664l0.512 0.512c3.072 4.096 5.632 7.168 8.704 9.728 0.512 0 0.512 0.512 1.024 0.512l436.224 251.904c5.632 3.072 11.776 5.12 18.432 5.12 6.144 0 12.8-1.536 18.432-5.12l67.584-39.424c1.536-1.024 3.072-2.56 3.584-4.608 9.728-36.352 29.696-70.144 57.344-97.792 2.56-2.56 3.072-7.168 0.512-10.24-3.072-2.56-7.68-3.072-10.752-1.536zM949.248 480.256l-62.976-36.352-42.496-25.088c-17.408-9.728-39.936-4.096-50.176 12.8-8.192 15.36-5.12 34.304 7.68 45.056 0.512 1.024 1.536 1.536 2.56 2.56l54.784 31.744-128.512 73.728c-3.584 2.048-4.608 6.144-3.072 9.728 1.024 3.072 4.096 4.608 7.168 4.608 0.512 0 1.536 0 2.048-0.512 18.432-5.12 36.864-7.68 56.32-7.68s38.4 2.56 55.808 7.68c2.048 0.512 4.096 0.512 6.144-0.512l95.232-54.784c8.192-4.608 14.336-12.8 16.896-22.016 2.56-9.216 1.024-19.456-3.584-27.648-3.584-6.144-8.704-10.752-13.824-13.312z" fill="#289EFC" /><path d="M35.328 320.512l1.536 2.048c2.048 2.56 4.096 5.12 6.656 7.168 0.512 0 0.512 0.512 1.024 0.512l436.224 251.904c5.632 3.072 11.776 5.12 18.432 5.12 6.144 0 12.8-1.536 18.944-5.12l433.152-249.856c17.408-10.24 23.552-32.256 13.312-50.176-3.072-5.12-7.68-9.728-13.312-12.8L518.656 18.944c-12.288-6.656-27.136-6.144-37.888 1.024L48.128 269.824c-17.408 10.24-23.552 32.256-13.312 49.664 0 0.512 0.512 1.024 0.512 1.024z m103.424-19.456L499.712 92.16l358.912 207.872-359.936 208.896-359.936-207.872z" fill="#289EFC" /><path d="M798.208 999.424c-103.936 0-188.928-84.48-188.928-188.928s84.48-188.928 188.928-188.928c103.936 0 188.928 84.48 188.928 188.928s-84.992 188.928-188.928 188.928z m0-326.144c-75.264 0-136.704 60.928-136.704 136.704 0 75.264 60.928 136.704 136.704 136.704 75.264 0 136.704-60.928 136.704-136.704-0.512-75.264-61.44-136.704-136.704-136.704z" fill="#32C9F0" /><path d="M765.44 896h-1.024c-7.168-0.512-13.824-3.584-18.432-8.704l-47.616-53.248c-9.216-10.752-8.192-27.136 2.048-37.376 10.752-9.216 27.136-8.192 37.376 2.048l29.184 33.28 87.552-81.92c10.24-9.728 27.136-9.216 37.376 1.024 9.728 10.24 9.216 27.136-1.024 37.376l-106.496 100.864c-5.632 4.096-11.776 6.656-18.944 6.656z" fill="#32C9F0" /></svg>